<?xml version="1.0" encoding="UTF-8"?>
<svg xmlns="http://www.w3.org/2000/svg" xmlns:xlink="http://www.w3.org/1999/xlink" width="35px" height="35px" viewBox="0 0 35 35" version="1.1">
<defs>
<filter id="alpha" filterUnits="objectBoundingBox" x="0%" y="0%" width="100%" height="100%">
  <feColorMatrix type="matrix" in="SourceGraphic" values="0 0 0 0 1 0 0 0 0 1 0 0 0 0 1 0 0 0 1 0"/>
</filter>
<mask id="mask0">
  <g filter="url(#alpha)">
<rect x="0" y="0" width="35" height="35" style="fill:rgb(0%,0%,0%);fill-opacity:0.403922;stroke:none;"/>
  </g>
</mask>
<linearGradient id="linear0" gradientUnits="userSpaceOnUse" x1="302.86" y1="366.65" x2="302.86" y2="609.51" gradientTransform="matrix(0.0464238,0,0,0.0327003,0.972558,12.300342)">
<stop offset="0" style="stop-color:rgb(0%,0%,0%);stop-opacity:0;"/>
<stop offset="0.5" style="stop-color:rgb(0%,0%,0%);stop-opacity:1;"/>
<stop offset="1" style="stop-color:rgb(0%,0%,0%);stop-opacity:0;"/>
</linearGradient>
<clipPath id="clip1">
  <rect x="0" y="0" width="35" height="35"/>
</clipPath>
<g id="surface5" clip-path="url(#clip1)">
<path style=" stroke:none;fill-rule:nonzero;fill:url(#linear0);" d="M 6.542969 24.289062 L 28.957031 24.289062 L 28.957031 32.230469 L 6.542969 32.230469 Z M 6.542969 24.289062 "/>
</g>
<mask id="mask1">
  <g filter="url(#alpha)">
<rect x="0" y="0" width="35" height="35" style="fill:rgb(0%,0%,0%);fill-opacity:0.403922;stroke:none;"/>
  </g>
</mask>
<radialGradient id="radial0" gradientUnits="userSpaceOnUse" cx="605.71" cy="486.65" fx="605.71" fy="486.65" r="117.14" gradientTransform="matrix(0.0464238,0,0,0.0327003,0.982598,12.300342)">
<stop offset="0" style="stop-color:rgb(0%,0%,0%);stop-opacity:1;"/>
<stop offset="1" style="stop-color:rgb(0%,0%,0%);stop-opacity:0;"/>
</radialGradient>
<clipPath id="clip2">
  <rect x="0" y="0" width="35" height="35"/>
</clipPath>
<g id="surface8" clip-path="url(#clip2)">
<path style=" stroke:none;fill-rule:nonzero;fill:url(#radial0);" d="M 28.960938 24.289062 L 28.960938 32.230469 C 31.351562 32.246094 34.738281 30.453125 34.738281 28.261719 C 34.738281 26.070312 32.070312 24.289062 28.960938 24.289062 Z M 28.960938 24.289062 "/>
</g>
<mask id="mask2">
  <g filter="url(#alpha)">
<rect x="0" y="0" width="35" height="35" style="fill:rgb(0%,0%,0%);fill-opacity:0.403922;stroke:none;"/>
  </g>
</mask>
<radialGradient id="radial1" gradientUnits="userSpaceOnUse" cx="605.71" cy="486.65" fx="605.71" fy="486.65" r="117.14" gradientTransform="matrix(-0.0464238,0,0,0.0327003,34.521387,12.300342)">
<stop offset="0" style="stop-color:rgb(0%,0%,0%);stop-opacity:1;"/>
<stop offset="1" style="stop-color:rgb(0%,0%,0%);stop-opacity:0;"/>
</radialGradient>
<clipPath id="clip3">
  <rect x="0" y="0" width="35" height="35"/>
</clipPath>
<g id="surface11" clip-path="url(#clip3)">
<path style=" stroke:none;fill-rule:nonzero;fill:url(#radial1);" d="M 6.542969 24.289062 L 6.542969 32.230469 C 4.152344 32.246094 0.761719 30.453125 0.761719 28.261719 C 0.761719 26.070312 3.433594 24.289062 6.542969 24.289062 Z M 6.542969 24.289062 "/>
</g>
<mask id="mask3">
  <g filter="url(#alpha)">
<rect x="0" y="0" width="35" height="35" style="fill:rgb(0%,0%,0%);fill-opacity:0.109804;stroke:none;"/>
  </g>
</mask>
<clipPath id="clip4">
  <rect x="0" y="0" width="35" height="35"/>
</clipPath>
<g id="surface14" clip-path="url(#clip4)">
<path style="fill-rule:evenodd;fill:rgb(0%,0%,0%);fill-opacity:1;stroke-width:1;stroke-linecap:butt;stroke-linejoin:miter;stroke:rgb(0%,0%,0%);stroke-opacity:1;stroke-miterlimit:4;" d="M 9.160714 30.803571 L 39.396429 30.803571 C 40.253571 30.803571 40.944643 31.478571 40.944643 32.314286 L 42.267857 37.114286 C 42.267857 37.95 41.582143 38.619643 40.725 38.619643 L 8.276786 38.619643 C 7.419643 38.619643 6.728571 37.95 6.728571 37.114286 L 7.617857 32.314286 C 7.617857 31.478571 8.303571 30.803571 9.160714 30.803571 Z M 9.160714 30.803571 " transform="matrix(0.729167,0,0,0.729167,0,0)"/>
</g>
<linearGradient id="linear1" gradientUnits="userSpaceOnUse" x1="6.7857" y1="30.786" x2="42.214" y2="30.786" gradientTransform="matrix(1,0,0,1,0,0.78572)">
<stop offset="0" style="stop-color:rgb(88.627451%,88.627451%,88.627451%);stop-opacity:1;"/>
<stop offset="1" style="stop-color:rgb(62.352941%,62.352941%,62.352941%);stop-opacity:1;"/>
</linearGradient>
<linearGradient id="linear2" gradientUnits="userSpaceOnUse" x1="13.357" y1="14.429" x2="42.214" y2="28.429" gradientTransform="matrix(1,0,0,1,0.000000000000002082,0.78572)">
<stop offset="0" style="stop-color:rgb(90.588235%,92.156863%,92.156863%);stop-opacity:1;"/>
<stop offset="0.5" style="stop-color:rgb(90.196078%,92.156863%,92.156863%);stop-opacity:1;"/>
<stop offset="1" style="stop-color:rgb(100%,100%,100%);stop-opacity:1;"/>
</linearGradient>
<mask id="mask4">
  <g filter="url(#alpha)">
<rect x="0" y="0" width="35" height="35" style="fill:rgb(0%,0%,0%);fill-opacity:0.52549;stroke:none;"/>
  </g>
</mask>
<clipPath id="clip5">
  <rect x="0" y="0" width="35" height="35"/>
</clipPath>
<g id="surface17" clip-path="url(#clip5)">
<path style=" stroke:none;fill-rule:evenodd;fill:rgb(99.607843%,99.607843%,99.607843%);fill-opacity:1;" d="M 9.011719 6.613281 C 9.011719 6.859375 8.886719 7.085938 8.675781 7.207031 C 8.464844 7.332031 8.203125 7.332031 7.992188 7.207031 C 7.78125 7.085938 7.652344 6.859375 7.65625 6.613281 C 7.652344 6.371094 7.78125 6.144531 7.992188 6.019531 C 8.203125 5.898438 8.464844 5.898438 8.675781 6.019531 C 8.886719 6.144531 9.011719 6.371094 9.011719 6.613281 Z M 9.011719 6.613281 "/>
</g>
<mask id="mask5">
  <g filter="url(#alpha)">
<rect x="0" y="0" width="35" height="35" style="fill:rgb(0%,0%,0%);fill-opacity:0.301961;stroke:none;"/>
  </g>
</mask>
<clipPath id="clip6">
  <rect x="0" y="0" width="35" height="35"/>
</clipPath>
<g id="surface20" clip-path="url(#clip6)">
<path style="fill:none;stroke-width:1;stroke-linecap:round;stroke-linejoin:miter;stroke:rgb(100%,100%,100%);stroke-opacity:1;stroke-miterlimit:4;" d="M 13.044643 8.603571 L 36.369643 8.603571 " transform="matrix(0.729167,0,0,0.729167,0,0)"/>
</g>
</defs>
<g id="surface1">
<use xlink:href="#surface5" mask="url(#mask0)"/>
<use xlink:href="#surface8" mask="url(#mask1)"/>
<use xlink:href="#surface11" mask="url(#mask2)"/>
<path style="fill-rule:evenodd;fill:rgb(65.490196%,65.490196%,65.490196%);fill-opacity:1;stroke-width:1;stroke-linecap:butt;stroke-linejoin:miter;stroke:rgb(39.607843%,39.607843%,39.607843%);stroke-opacity:1;stroke-miterlimit:4;" d="M 4.858929 38.426786 C 4.644643 39.428571 5.464286 40.4625 6.819643 40.430357 L 43.001786 40.430357 C 44.2875 40.392857 44.716071 39.214286 44.426786 38.25 L 36.573214 9.428571 L 10.569643 9.428571 Z M 4.858929 38.426786 " transform="matrix(0.729167,0,0,0.729167,0,0)"/>
<use xlink:href="#surface14" mask="url(#mask3)"/>
<path style="fill:none;stroke-width:1;stroke-linecap:butt;stroke-linejoin:miter;stroke:rgb(100%,100%,100%);stroke-opacity:0.345098;stroke-miterlimit:4;" d="M 6.048214 37.805357 C 5.85 38.7375 5.651786 39.385714 6.525 39.385714 L 42.835714 39.385714 C 43.751786 39.385714 43.580357 38.646429 43.3125 37.746429 L 35.769643 10.473214 L 11.517857 10.473214 Z M 6.048214 37.805357 " transform="matrix(0.729167,0,0,0.729167,0,0)"/>
<path style="fill-rule:evenodd;fill:rgb(77.254902%,77.254902%,77.254902%);fill-opacity:1;stroke-width:1;stroke-linecap:butt;stroke-linejoin:miter;stroke:rgb(41.176471%,41.176471%,41.176471%);stroke-opacity:1;stroke-miterlimit:4;" d="M 9.642857 29.930357 L 38.930357 29.930357 C 39.760714 29.930357 40.430357 30.578571 40.430357 31.3875 L 41.716071 36.0375 C 41.716071 36.846429 41.046429 37.5 40.216071 37.5 L 8.785714 37.5 C 7.955357 37.5 7.285714 36.846429 7.285714 36.0375 L 8.142857 31.3875 C 8.142857 30.578571 8.8125 29.930357 9.642857 29.930357 Z M 9.642857 29.930357 " transform="matrix(0.729167,0,0,0.729167,0,0)"/>
<path style="fill-rule:evenodd;fill:url(#linear1);stroke-width:1;stroke-linecap:butt;stroke-linejoin:miter;stroke:rgb(41.176471%,41.176471%,41.176471%);stroke-opacity:1;stroke-miterlimit:4;" d="M 9.642857 27.7875 L 38.930357 27.7875 C 39.760714 27.7875 40.430357 28.435714 40.430357 29.244643 L 41.716071 33.894643 C 41.716071 34.703571 41.046429 35.357143 40.216071 35.357143 L 8.785714 35.357143 C 7.955357 35.357143 7.285714 34.703571 7.285714 33.894643 L 8.142857 29.244643 C 8.142857 28.435714 8.8125 27.7875 9.642857 27.7875 Z M 9.642857 27.7875 " transform="matrix(0.729167,0,0,0.729167,0,0)"/>
<path style="fill-rule:evenodd;fill:url(#linear2);stroke-width:1.061;stroke-linecap:butt;stroke-linejoin:miter;stroke:rgb(41.176471%,41.176471%,41.176471%);stroke-opacity:1;stroke-miterlimit:4;" d="M 10.89307 11.501277 L 6.573481 33.212895 L 32.854769 33.212895 C 45.444098 33.212895 48.087004 29.211592 48.087004 29.211592 C 48.087004 29.211592 44.727955 28.035072 43.301354 23.073228 L 40.237856 11.501277 Z M 10.89307 11.501277 " transform="matrix(0.687276,0,0,0.687276,-0.162327,1.35326)"/>
<path style="fill:none;stroke-width:1.061;stroke-linecap:butt;stroke-linejoin:miter;stroke:rgb(100%,100%,100%);stroke-opacity:1;stroke-miterlimit:4;" d="M 11.802457 12.473184 L 7.812521 32.240988 L 32.240933 32.240988 C 43.466181 32.240988 46.347801 29.387785 46.347801 29.387785 C 46.347801 29.387785 43.358191 27.523542 42.056631 23.005024 L 39.317102 12.547072 Z M 11.802457 12.473184 " transform="matrix(0.687276,0,0,0.687276,-0.162327,1.35326)"/>
<path style="fill-rule:evenodd;fill:rgb(60.784314%,60.784314%,60.784314%);fill-opacity:1;stroke-width:1;stroke-linecap:butt;stroke-linejoin:miter;stroke:rgb(41.176471%,41.176471%,41.176471%);stroke-opacity:1;stroke-miterlimit:4;" d="M 11.314286 7.430357 L 36.492857 7.430357 C 37.366071 7.430357 38.073214 8.094643 38.073214 8.930357 L 38.426786 11.073214 C 38.426786 11.903571 37.725 12.573214 36.851786 12.573214 L 10.960714 12.573214 C 10.0875 12.573214 9.380357 11.903571 9.380357 11.073214 L 9.739286 8.930357 C 9.739286 8.094643 10.441071 7.430357 11.314286 7.430357 Z M 11.314286 7.430357 " transform="matrix(0.729167,0,0,0.729167,0,0)"/>
<path style=" stroke:none;fill-rule:nonzero;fill:rgb(0%,0%,0%);fill-opacity:1;" d="M 15.289062 16.328125 C 16.011719 16.398438 16.546875 16.597656 16.894531 16.9375 C 17.246094 17.273438 17.390625 17.699219 17.328125 18.21875 C 17.238281 18.984375 16.828125 19.597656 16.09375 20.066406 C 15.359375 20.53125 14.410156 20.765625 13.246094 20.765625 C 12.351562 20.765625 11.597656 20.625 10.984375 20.34375 L 11.160156 18.863281 C 11.804688 19.308594 12.539062 19.53125 13.359375 19.53125 C 14.011719 19.53125 14.53125 19.421875 14.90625 19.210938 C 15.285156 18.992188 15.5 18.691406 15.546875 18.300781 C 15.59375 17.890625 15.441406 17.589844 15.089844 17.398438 C 14.734375 17.210938 14.144531 17.113281 13.320312 17.113281 L 12.390625 17.113281 L 12.542969 15.839844 L 13.53125 15.839844 C 14.183594 15.839844 14.691406 15.738281 15.058594 15.542969 C 15.425781 15.339844 15.632812 15.054688 15.675781 14.6875 C 15.71875 14.34375 15.609375 14.066406 15.355469 13.855469 C 15.101562 13.648438 14.695312 13.542969 14.140625 13.542969 C 13.441406 13.542969 12.753906 13.746094 12.082031 14.15625 L 12.25 12.738281 C 13 12.421875 13.847656 12.261719 14.78125 12.261719 C 15.683594 12.261719 16.378906 12.449219 16.859375 12.824219 C 17.347656 13.199219 17.554688 13.679688 17.488281 14.265625 C 17.421875 14.808594 17.207031 15.253906 16.839844 15.597656 C 16.476562 15.941406 15.957031 16.183594 15.289062 16.328125 "/>
<path style=" stroke:none;fill-rule:nonzero;fill:rgb(0%,0%,0%);fill-opacity:1;" d="M 24.066406 20.75 L 22.238281 20.75 L 21.429688 13.925781 L 19.171875 14.503906 L 19.023438 13.222656 L 23.0625 12.277344 L 24.066406 20.75 "/>
<use xlink:href="#surface17" mask="url(#mask4)"/>
<use xlink:href="#surface20" mask="url(#mask5)"/>
</g>
</svg>
